<?xml version="1.0" encoding="UTF-8"?>
<svg id="
" xmlns="http://www.w3.org/2000/svg" viewBox="0 0 1000 1000">
  <defs>
    <style>
      .c1 {
        fill: #ff7319;
      }
      .c2 {
        fill: #ffffff
      }
    </style>
  </defs>
  <g>
    <path class="c1" d="M391.1294,322.9505c0,36.3667-27.4468,59.0096-71.1318,59.0096h-27.9036v41.8558h-45.2865v-160.1034h73.1901c43.685,0,71.1318,22.6429,71.1318,59.238ZM345.3854,322.9505c0-14.8664-9.3773-23.5579-28.1327-23.5579h-25.1587v46.8874h25.1587c18.7554,0,28.1327-8.6915,28.1327-23.3295Z"/>
    <path class="c1" d="M407.1406,343.7642c0-48.0307,37.7384-83.2541,88.9715-83.2541s88.9715,35.2233,88.9715,83.2541-37.7384,83.2533-88.9715,83.2533-88.9715-35.2226-88.9715-83.2533ZM539.3396,343.7642c0-27.6752-18.9838-45.744-43.2275-45.744s-43.2275,18.0688-43.2275,45.744,18.9838,45.744,43.2275,45.744,43.2275-18.0688,43.2275-45.744Z"/>
    <path class="c1" d="M753.1926,322.9505c0,36.3667-27.4461,59.0096-71.1326,59.0096h-27.9029v41.8558h-45.2873v-160.1034h73.1901c43.6864,0,71.1326,22.6429,71.1326,59.238ZM707.4486,322.9505c0-14.8664-9.3773-23.5579-28.132-23.5579h-25.1594v46.8874h25.1594c18.7547,0,28.132-8.6915,28.132-23.3295Z"/>
  </g>
  <path class="c1" d="M148.8018,536.5971c0-48.7166,37.2809-83.2533,88.0566-83.2533,29.5052,0,53.2921,10.7491,68.8451,30.191l-28.8193,26.073c-10.0632-12.1222-22.4145-18.7547-37.7384-18.7547-26.3028,0-44.6,18.2979-44.6,45.744s18.2972,45.744,44.6,45.744c15.3239,0,27.6752-6.6324,37.7384-18.7547l28.8193,26.073c-15.553,19.442-39.34,30.191-68.8451,30.191-50.7756,0-88.0566-34.5368-88.0566-83.2533Z"/>
  <path class="c1" d="M478.1568,456.5454v160.1034h-45.2865v-62.4396h-61.7538v62.4396h-45.2865v-160.1034h45.2865v60.1529h61.7538v-60.1529h45.2865Z"/>
  <path class="c1" d="M773.6623,574.1064h-24.7012v42.5424h-45.2873v-160.1034h73.1901c43.6864,0,71.1326,22.6436,71.1326,59.238,0,23.5586-11.4364,40.9415-31.3351,50.5465l34.5368,50.3189h-48.4889l-29.047-42.5424ZM774.1205,492.2248h-25.1594v46.8881h25.1594c18.7547,0,28.132-8.6915,28.132-23.3295,0-14.8671-9.3773-23.5586-28.132-23.5586Z"/>
  <g>
    <path class="c1" d="M553.5814,523.8974c4.1145-11.9988,13.5944-21.4787,25.5932-25.5932,1.6411-.5627,2.7642-2.0764,2.7642-3.8113v-35.4765c0-2.5328-2.3107-4.4035-4.8007-3.9398-33.8297,6.3003-60.4841,32.9545-66.7844,66.7844-.4637,2.4899,1.4071,4.8007,3.9398,4.8007h35.4765c1.7349,0,3.2486-1.1231,3.8113-2.7642Z"/>
    <path class="c1" d="M605.9044,498.3042c11.9988,4.1145,21.4787,13.5944,25.5932,25.5932.5627,1.6411,2.0764,2.7642,3.8113,2.7642h35.4765c2.5328,0,4.4035-2.3107,3.9398-4.8007-6.3003-33.8298-32.9547-60.4841-66.7844-66.7844-2.4899-.4637-4.8007,1.4071-4.8007,3.9398v35.4765c0,1.7349,1.1231,3.2486,2.7642,3.8113Z"/>
    <path class="c1" d="M631.4976,550.6273c-4.1145,11.9988-13.5944,21.4787-25.5932,25.5932-1.6411.5627-2.7642,2.0764-2.7642,3.8113v35.4765c0,2.5328,2.3107,4.4035,4.8007,3.9398,33.8297-6.3003,60.4841-32.9547,66.7844-66.7844.4637-2.4899-1.4071-4.8007-3.9398-4.8007h-35.4765c-1.7349,0-3.2486,1.1231-3.8113,2.7642Z"/>
    <path class="c1" d="M579.1745,576.2205c-11.9988-4.1145-21.4787-13.5944-25.5932-25.5932-.5627-1.6411-2.0764-2.7642-3.8113-2.7642h-35.4765c-2.5328,0-4.4035,2.3107-3.9398,4.8007,6.3003,33.8297,32.9547,60.4841,66.7844,66.7844,2.4899.4637,4.8007-1.4071,4.8007-3.9398v-35.4765c0-1.7349-1.1231-3.2486-2.7642-3.8113Z"/>
  </g>
  <g>
    <path class="c2" d="M309.9795,717.5215l-.084-42.5986-21.1318,35.499h-3.8428l-21.1318-35.248v42.3477h-8.0186v-58.4688h6.8496l24.3896,41.0947,24.0557-41.0947h6.8486l.084,58.4688h-8.0186Z"/>
    <path class="c2" d="M372.79,702.9043h-31.0723l-6.4316,14.6172h-8.6025l26.4775-58.4688h8.2695l26.5615,58.4688h-8.7705l-6.4316-14.6172ZM369.8662,696.2227l-12.6123-28.6504-12.6123,28.6504h25.2246Z"/>
    <path class="c2" d="M446.9609,659.0527v58.4688h-6.8486l-35.0811-43.6006v43.6006h-8.3525v-58.4688h6.8486l35.0811,43.6006v-43.6006h8.3525Z"/>
    <path class="c2" d="M514.7842,659.0527v58.4688h-6.8486l-35.0811-43.6006v43.6006h-8.3525v-58.4688h6.8486l35.0811,43.6006v-43.6006h8.3525Z"/>
    <path class="c2" d="M582.6074,659.0527v58.4688h-8.3535v-26.0605h-33.5771v26.0605h-8.3525v-58.4688h8.3525v25.1416h33.5771v-25.1416h8.3535Z"/>
    <path class="c2" d="M642.5791,710.2549v7.2666h-42.4316v-58.4688h41.2617v7.2666h-32.9092v17.959h29.3174v7.0996h-29.3174v18.877h34.0791Z"/>
    <path class="c2" d="M656.1104,659.0527h8.3525v58.4688h-8.3525v-58.4688Z"/>
    <path class="c2" d="M736.2119,717.5215l-.084-42.5986-21.1318,35.499h-3.8428l-21.1318-35.248v42.3477h-8.0186v-58.4688h6.8486l24.3896,41.0947,24.0557-41.0947h6.8496l.084,58.4688h-8.0186Z"/>
  </g>
</svg>